<svg xmlns="http://www.w3.org/2000/svg" viewBox="0 0 32 32">
  <rect width="32" height="32" rx="6" fill="#111111"/>
  <path d="M16 6.5c-.8 0-1.5.7-1.5 1.5 0 .3.1.6.3.8L13 11l-2-1.2c-.2-.1-.4 0-.4.2v2.4c0 .2.2.3.4.2L13 11.4l1.8 2.2-1.2 3.2h-3.1c-.3 0-.5.2-.5.5v1c0 .3.2.5.5.5h11c.3 0 .5-.2.5-.5v-1c0-.3-.2-.5-.5-.5h-3.1l-1.2-3.2L19 11.4l2 1.2c.2.1.4 0 .4-.2V10c0-.2-.2-.3-.4-.2L19 11l-1.8-2.2c.2-.2.3-.5.3-.8 0-.8-.7-1.5-1.5-1.5z" fill="#C9A227"/>
  <rect x="9" y="22" width="14" height="2.5" rx="1" fill="#C9A227"/>
</svg>
